<svg xmlns="http://www.w3.org/2000/svg" width="140" height="86" viewBox="0 0 140 86"><rect width="140" height="80" rx="6" fill="#145c90"/><circle cx="70" cy="32" r="24" fill="#222"/><circle cx="70" cy="32" r="14" fill="#122c48" stroke="#718da5" stroke-width="3"/><circle cx="65" cy="27" r="5" fill="#acd4eb" opacity=".7"/><text x="70" y="65" text-anchor="middle" fill="white" font-size="10">ArduCAM 2MP Plus</text><rect x="7" y="77" width="6" height="9" fill="#dbb667"/><text x="10" y="74" text-anchor="middle" font-size="5" fill="white">VCC</text><rect x="24" y="77" width="6" height="9" fill="#dbb667"/><text x="27" y="74" text-anchor="middle" font-size="5" fill="white">GND</text><rect x="41" y="77" width="6" height="9" fill="#dbb667"/><text x="44" y="74" text-anchor="middle" font-size="5" fill="white">SDA</text><rect x="58" y="77" width="6" height="9" fill="#dbb667"/><text x="61" y="74" text-anchor="middle" font-size="5" fill="white">SCL</text><rect x="75" y="77" width="6" height="9" fill="#dbb667"/><text x="78" y="74" text-anchor="middle" font-size="5" fill="white">SCLK</text><rect x="92" y="77" width="6" height="9" fill="#dbb667"/><text x="95" y="74" text-anchor="middle" font-size="5" fill="white">MOSI</text><rect x="109" y="77" width="6" height="9" fill="#dbb667"/><text x="112" y="74" text-anchor="middle" font-size="5" fill="white">MISO</text><rect x="126" y="77" width="6" height="9" fill="#dbb667"/><text x="129" y="74" text-anchor="middle" font-size="5" fill="white">CS</text></svg>
